<svg id="visual" viewBox="0 0 900 600" width="900" height="600" xmlns="http://www.w3.org/2000/svg" xmlns:xlink="http://www.w3.org/1999/xlink" version="1.1"><rect x="0" y="0" width="900" height="600" fill="#2f4f4f"></rect><path d="M0 350L129 365L257 360L386 388L514 376L643 359L771 358L900 388L900 601L771 601L643 601L514 601L386 601L257 601L129 601L0 601Z" fill="#871400"></path><path d="M0 458L129 478L257 441L386 397L514 442L643 477L771 451L900 479L900 601L771 601L643 601L514 601L386 601L257 601L129 601L0 601Z" fill="#a32d04"></path><path d="M0 438L129 496L257 482L386 477L514 508L643 502L771 454L900 476L900 601L771 601L643 601L514 601L386 601L257 601L129 601L0 601Z" fill="#be4407"></path><path d="M0 511L129 501L257 501L386 519L514 533L643 487L771 523L900 525L900 601L771 601L643 601L514 601L386 601L257 601L129 601L0 601Z" fill="#da5b09"></path><path d="M0 567L129 571L257 541L386 557L514 542L643 526L771 574L900 544L900 601L771 601L643 601L514 601L386 601L257 601L129 601L0 601Z" fill="#f5730a"></path></svg>