<svg id="visual" viewBox="0 0 900 600" width="900" height="600" xmlns="http://www.w3.org/2000/svg" xmlns:xlink="http://www.w3.org/1999/xlink" version="1.1"><path d="M0 169L82 169L82 55L164 55L164 67L245 67L245 127L327 127L327 49L409 49L409 139L491 139L491 127L573 127L573 145L655 145L655 79L736 79L736 73L818 73L818 133L900 133L900 91L900 0L900 0L818 0L818 0L736 0L736 0L655 0L655 0L573 0L573 0L491 0L491 0L409 0L409 0L327 0L327 0L245 0L245 0L164 0L164 0L82 0L82 0L0 0Z" fill="#d83131"></path><path d="M0 247L82 247L82 145L164 145L164 139L245 139L245 205L327 205L327 157L409 157L409 217L491 217L491 175L573 175L573 259L655 259L655 175L736 175L736 175L818 175L818 265L900 265L900 205L900 89L900 131L818 131L818 71L736 71L736 77L655 77L655 143L573 143L573 125L491 125L491 137L409 137L409 47L327 47L327 125L245 125L245 65L164 65L164 53L82 53L82 167L0 167Z" fill="#935c00"></path><path d="M0 289L82 289L82 181L164 181L164 217L245 217L245 271L327 271L327 241L409 241L409 289L491 289L491 247L573 247L573 331L655 331L655 235L736 235L736 247L818 247L818 307L900 307L900 295L900 203L900 263L818 263L818 173L736 173L736 173L655 173L655 257L573 257L573 173L491 173L491 215L409 215L409 155L327 155L327 203L245 203L245 137L164 137L164 143L82 143L82 245L0 245Z" fill="#526516"></path><path d="M0 439L82 439L82 319L164 319L164 337L245 337L245 523L327 523L327 337L409 337L409 511L491 511L491 463L573 463L573 409L655 409L655 355L736 355L736 421L818 421L818 415L900 415L900 421L900 293L900 305L818 305L818 245L736 245L736 233L655 233L655 329L573 329L573 245L491 245L491 287L409 287L409 239L327 239L327 269L245 269L245 215L164 215L164 179L82 179L82 287L0 287Z" fill="#265e41"></path><path d="M0 601L82 601L82 601L164 601L164 601L245 601L245 601L327 601L327 601L409 601L409 601L491 601L491 601L573 601L573 601L655 601L655 601L736 601L736 601L818 601L818 601L900 601L900 601L900 419L900 413L818 413L818 419L736 419L736 353L655 353L655 407L573 407L573 461L491 461L491 509L409 509L409 335L327 335L327 521L245 521L245 335L164 335L164 317L82 317L82 437L0 437Z" fill="#2f4f4f"></path></svg>