<svg id="visual" viewBox="0 0 900 600" width="900" height="600" xmlns="http://www.w3.org/2000/svg" xmlns:xlink="http://www.w3.org/1999/xlink" version="1.1"><path d="M0 85L82 79L164 43L245 103L327 37L409 85L491 49L573 67L655 73L736 37L818 43L900 85L900 0L818 0L736 0L655 0L573 0L491 0L409 0L327 0L245 0L164 0L82 0L0 0Z" fill="#2f4f4f"></path><path d="M0 145L82 187L164 157L245 157L327 103L409 181L491 145L573 133L655 127L736 169L818 91L900 151L900 83L818 41L736 35L655 71L573 65L491 47L409 83L327 35L245 101L164 41L82 77L0 83Z" fill="#3c6477"></path><path d="M0 301L82 271L164 265L245 241L327 259L409 295L491 283L573 199L655 223L736 301L818 169L900 211L900 149L818 89L736 167L655 125L573 131L491 143L409 179L327 101L245 155L164 155L82 185L0 143Z" fill="#6a749a"></path><path d="M0 433L82 403L164 361L245 367L327 493L409 481L491 457L573 397L655 427L736 433L818 367L900 403L900 209L818 167L736 299L655 221L573 197L491 281L409 293L327 257L245 239L164 263L82 269L0 299Z" fill="#a97fa7"></path><path d="M0 601L82 601L164 601L245 601L327 601L409 601L491 601L573 601L655 601L736 601L818 601L900 601L900 401L818 365L736 431L655 425L573 395L491 455L409 479L327 491L245 365L164 359L82 401L0 431Z" fill="#df8d9a"></path></svg>